<svg id="svg" version="1.1" width="400" height="170.03389830508476" xmlns="http://www.w3.org/2000/svg" xmlns:xlink="http://www.w3.org/1999/xlink" style="display: block;"><g id="svgg"><path id="path0" d="M209.014 85.799 L 209.014 106.973 222.284 106.973 C 237.398 106.973,236.149 107.134,234.976 105.333 C 233.558 103.157,232.476 102.177,226.871 97.997 C 217.223 90.803,216.809 90.458,215.461 88.498 C 212.965 84.870,212.822 80.166,215.071 75.617 C 218.826 68.019,229.185 66.403,237.968 72.045 L 239.116 72.782 239.116 75.337 C 239.116 78.396,239.187 78.346,237.155 76.716 C 233.015 73.394,226.991 72.175,223.355 73.922 C 221.133 74.990,219.480 77.280,218.710 80.355 C 217.707 84.364,218.842 85.914,227.636 92.555 C 232.842 96.485,234.932 98.163,237.218 100.247 C 238.744 101.639,240.568 104.348,240.888 105.697 C 241.203 107.024,241.009 106.973,245.732 106.973 L 249.960 106.973 250.063 106.590 C 250.119 106.380,250.166 101.184,250.168 95.044 C 250.170 84.643,250.190 83.872,250.463 83.768 C 250.624 83.706,251.829 83.583,253.141 83.495 C 254.454 83.408,255.757 83.299,256.037 83.254 C 259.920 82.630,267.342 82.641,270.068 83.274 C 276.662 84.806,281.249 90.055,282.680 97.704 C 282.946 99.123,282.969 104.866,282.713 105.867 C 282.429 106.977,282.420 106.973,285.070 106.973 L 287.459 106.973 287.309 105.910 C 285.827 95.375,292.137 85.289,301.479 83.259 C 311.474 81.088,320.578 89.523,320.648 101.020 L 320.663 103.486 306.470 103.530 C 298.664 103.554,292.217 103.633,292.144 103.707 C 292.030 103.821,292.338 105.739,292.620 106.675 C 292.705 106.956,293.706 106.973,310.536 106.973 L 328.362 106.973 328.464 106.590 C 328.521 106.380,328.568 101.097,328.569 94.851 L 328.571 83.494 330.910 83.541 L 333.248 83.588 333.333 95.238 L 333.418 106.888 337.245 106.888 L 341.071 106.888 341.020 105.272 C 340.749 96.756,345.073 88.639,351.871 84.906 C 355.608 82.853,359.780 82.537,370.238 83.514 C 371.314 83.615,372.691 83.739,373.299 83.790 C 373.907 83.841,374.500 83.960,374.617 84.054 C 374.784 84.188,374.830 86.705,374.830 95.599 L 374.830 106.973 376.786 106.973 L 378.743 106.973 378.700 85.842 L 378.656 64.711 293.835 64.668 L 209.014 64.626 209.014 85.799 M333.296 76.488 L 333.248 78.827 330.910 78.874 L 328.571 78.921 328.571 76.535 L 328.571 74.150 330.957 74.150 L 333.343 74.150 333.296 76.488 M260.374 87.581 C 257.351 87.800,255.714 87.943,255.313 88.025 L 254.929 88.102 254.973 97.495 L 255.017 106.888 266.107 106.932 C 278.724 106.981,277.373 107.165,277.707 105.358 C 278.834 99.256,276.918 92.776,273.136 89.899 C 270.303 87.745,266.832 87.114,260.374 87.581 M357.653 87.818 C 351.875 89.164,348.147 93.165,346.621 99.660 C 346.019 102.226,345.823 106.529,346.295 106.829 C 346.681 107.074,369.516 107.007,369.675 106.760 C 369.751 106.643,369.835 102.443,369.862 97.427 L 369.912 88.306 369.104 88.185 C 366.219 87.752,358.937 87.519,357.653 87.818 M303.571 87.927 C 299.519 88.375,295.235 91.706,293.324 95.895 C 292.758 97.136,292.329 98.565,292.478 98.714 C 292.531 98.767,297.727 98.810,304.025 98.810 L 315.476 98.810 315.476 98.321 C 315.476 97.540,314.672 95.291,313.950 94.056 C 311.177 89.307,308.011 87.437,303.571 87.927 " stroke="none" fill="#fefefe" fill-rule="evenodd"></path><path id="path1" d="M153.603 21.981 C 153.228 22.285,152.704 22.700,152.439 22.902 C 152.173 23.105,151.772 23.430,151.547 23.625 C 151.322 23.820,151.085 23.980,151.019 23.980 C 150.954 23.980,150.712 24.152,150.483 24.362 C 150.254 24.573,149.612 25.089,149.056 25.510 C 148.500 25.931,147.854 26.448,147.621 26.658 C 147.388 26.869,147.151 27.041,147.094 27.041 C 147.037 27.041,146.807 27.200,146.582 27.395 C 146.357 27.591,145.956 27.916,145.691 28.118 C 145.426 28.321,145.106 28.582,144.980 28.699 C 144.855 28.816,144.708 28.912,144.655 28.912 C 144.602 28.912,144.416 29.045,144.242 29.209 C 144.068 29.373,143.570 29.775,143.134 30.102 C 142.698 30.429,142.094 30.907,141.792 31.162 C 141.489 31.418,141.196 31.628,141.140 31.630 C 141.084 31.631,140.855 31.792,140.630 31.987 C 140.405 32.182,140.004 32.508,139.739 32.710 C 139.473 32.913,139.154 33.174,139.028 33.291 C 138.903 33.408,138.763 33.503,138.717 33.503 C 138.672 33.503,138.456 33.654,138.237 33.839 C 137.879 34.141,136.569 35.182,136.139 35.504 C 136.046 35.575,135.625 35.899,135.204 36.224 C 134.783 36.550,134.362 36.872,134.269 36.940 C 134.175 37.008,133.821 37.295,133.481 37.579 C 133.141 37.863,132.810 38.095,132.746 38.095 C 132.682 38.095,132.533 38.191,132.416 38.308 C 132.299 38.425,131.956 38.712,131.654 38.946 C 129.690 40.466,129.701 40.476,133.418 40.476 L 136.565 40.476 136.565 53.997 L 136.565 67.517 124.957 67.517 L 113.350 67.517 112.892 67.134 C 112.640 66.924,112.186 66.560,111.884 66.327 C 111.582 66.093,111.249 65.825,111.145 65.731 C 111.040 65.638,110.833 65.485,110.685 65.391 C 110.306 65.153,107.616 63.070,107.343 62.804 C 107.220 62.684,107.067 62.584,107.003 62.582 C 106.940 62.581,106.633 62.355,106.322 62.081 C 106.011 61.807,105.524 61.406,105.240 61.191 C 104.955 60.976,104.472 60.589,104.167 60.332 C 103.861 60.074,103.532 59.864,103.436 59.864 C 103.339 59.864,103.234 59.806,103.203 59.735 C 103.157 59.630,102.428 59.032,101.446 58.294 C 101.125 58.052,99.745 56.944,99.375 56.631 C 99.172 56.458,98.789 56.180,98.525 56.011 C 98.261 55.843,97.983 55.608,97.908 55.489 C 97.833 55.370,97.661 55.272,97.526 55.272 C 97.390 55.272,97.279 55.194,97.279 55.100 C 97.279 55.005,97.062 54.794,96.796 54.632 C 96.255 54.300,95.228 53.510,94.591 52.934 C 94.358 52.723,94.122 52.550,94.065 52.548 C 94.009 52.546,93.657 52.278,93.284 51.953 C 92.911 51.627,92.553 51.361,92.488 51.361 C 92.424 51.361,92.237 51.227,92.074 51.063 C 91.746 50.735,90.892 50.056,90.309 49.660 C 90.103 49.520,89.769 49.264,89.567 49.093 C 89.366 48.921,88.983 48.615,88.718 48.412 C 88.452 48.210,87.928 47.795,87.552 47.490 C 86.438 46.586,85.956 46.617,84.779 47.667 C 83.941 48.415,83.239 48.974,83.135 48.977 C 83.073 48.978,82.843 49.131,82.625 49.315 C 82.267 49.617,80.956 50.658,80.527 50.981 C 80.434 51.051,80.013 51.375,79.592 51.701 C 79.171 52.026,78.750 52.352,78.656 52.424 C 78.563 52.496,78.219 52.782,77.891 53.060 C 77.564 53.338,77.245 53.567,77.183 53.569 C 77.070 53.571,76.711 53.855,75.514 54.889 C 75.162 55.193,74.826 55.442,74.768 55.442 C 74.710 55.442,74.490 55.591,74.279 55.772 C 73.508 56.434,73.147 56.725,72.683 57.058 C 72.422 57.245,72.089 57.513,71.943 57.653 C 71.797 57.793,71.450 58.056,71.171 58.236 C 70.892 58.417,70.239 58.914,69.719 59.342 C 69.200 59.769,68.563 60.272,68.303 60.459 C 68.042 60.646,67.689 60.914,67.517 61.054 C 67.345 61.195,66.993 61.463,66.734 61.650 C 66.475 61.837,66.075 62.162,65.845 62.372 C 65.615 62.583,65.376 62.755,65.313 62.755 C 65.251 62.755,65.052 62.890,64.871 63.056 C 64.689 63.221,64.045 63.738,63.439 64.204 C 62.832 64.670,62.145 65.223,61.910 65.434 C 61.675 65.644,61.428 65.816,61.362 65.816 C 61.295 65.816,61.049 66.008,60.815 66.241 C 60.581 66.475,60.313 66.667,60.220 66.667 C 60.127 66.667,59.990 66.769,59.915 66.895 C 59.840 67.021,59.556 67.267,59.283 67.443 C 59.010 67.619,58.627 67.897,58.432 68.061 C 58.103 68.337,56.763 69.398,56.378 69.688 C 55.395 70.426,54.667 71.024,54.620 71.130 C 54.589 71.201,54.474 71.261,54.365 71.263 C 54.256 71.266,53.943 71.495,53.671 71.773 C 53.398 72.051,53.111 72.279,53.033 72.279 C 52.955 72.279,52.752 72.413,52.581 72.577 C 52.175 72.967,51.048 73.852,50.700 74.054 C 50.549 74.141,50.343 74.294,50.243 74.394 C 50.142 74.493,49.810 74.766,49.505 75.000 C 49.200 75.234,48.847 75.521,48.722 75.638 C 48.596 75.755,48.415 75.850,48.320 75.850 C 48.224 75.850,48.085 75.953,48.010 76.079 C 47.935 76.204,47.646 76.453,47.367 76.631 C 47.088 76.810,46.736 77.071,46.584 77.211 C 46.206 77.562,45.884 77.816,44.218 79.077 C 43.423 79.679,42.747 80.232,42.715 80.307 C 42.684 80.381,42.557 80.442,42.432 80.442 C 42.307 80.442,42.180 80.500,42.149 80.571 C 42.117 80.642,41.747 80.967,41.327 81.294 C 40.527 81.914,39.981 82.479,39.972 82.696 C 39.969 82.766,43.104 82.823,46.939 82.823 L 53.912 82.823 53.912 102.537 L 53.912 122.251 53.189 122.507 C 52.791 122.648,52.045 122.894,51.531 123.055 C 51.016 123.215,50.442 123.406,50.255 123.480 C 50.068 123.555,49.453 123.768,48.887 123.955 C 48.322 124.142,47.634 124.386,47.357 124.498 C 46.490 124.850,46.204 124.956,45.068 125.352 C 44.460 125.563,43.656 125.870,43.282 126.033 C 42.360 126.435,40.356 127.211,40.238 127.211 C 40.186 127.211,39.549 127.483,38.822 127.815 C 38.095 128.148,37.347 128.485,37.160 128.566 C 36.153 128.998,30.004 132.041,29.932 132.143 C 29.885 132.209,29.445 132.446,28.954 132.670 C 28.463 132.893,28.061 133.134,28.061 133.205 C 28.061 133.275,27.987 133.333,27.897 133.333 C 27.807 133.333,27.039 133.754,26.190 134.269 C 25.342 134.783,24.574 135.204,24.484 135.204 C 24.394 135.204,24.320 135.263,24.320 135.335 C 24.320 135.408,24.052 135.611,23.724 135.787 C 23.397 135.964,23.129 136.172,23.129 136.251 C 23.129 136.330,23.050 136.395,22.952 136.395 C 22.509 136.395,21.212 137.542,21.369 137.796 C 21.481 137.978,22.239 137.957,22.356 137.768 C 22.409 137.682,22.687 137.560,22.973 137.497 C 23.258 137.434,23.698 137.276,23.949 137.145 C 24.199 137.014,24.539 136.906,24.702 136.906 C 24.866 136.905,25.000 136.828,25.000 136.735 C 25.000 136.641,25.153 136.565,25.340 136.565 C 25.527 136.565,25.680 136.495,25.680 136.410 C 25.680 136.324,25.986 136.203,26.361 136.139 C 26.735 136.076,27.041 135.959,27.041 135.880 C 27.041 135.800,27.385 135.683,27.806 135.620 C 28.227 135.557,28.571 135.438,28.571 135.355 C 28.571 135.272,28.763 135.204,28.997 135.204 C 29.230 135.204,29.422 135.134,29.422 135.049 C 29.422 134.964,29.728 134.842,30.102 134.779 C 30.476 134.716,30.782 134.603,30.782 134.528 C 30.782 134.453,31.127 134.341,31.548 134.278 C 31.969 134.214,32.313 134.091,32.313 134.003 C 32.313 133.915,32.466 133.844,32.653 133.844 C 32.840 133.844,32.993 133.777,32.993 133.695 C 32.993 133.614,33.373 133.497,33.837 133.435 C 34.300 133.374,34.720 133.258,34.770 133.178 C 34.819 133.098,35.205 132.981,35.627 132.917 C 36.049 132.854,36.395 132.739,36.395 132.662 C 36.395 132.585,36.737 132.470,37.156 132.407 C 37.575 132.345,37.962 132.221,38.016 132.133 C 38.071 132.045,38.302 131.973,38.530 131.973 C 38.759 131.973,38.946 131.905,38.946 131.822 C 38.946 131.740,39.366 131.619,39.881 131.555 C 40.395 131.491,40.816 131.374,40.816 131.296 C 40.816 131.218,41.199 131.102,41.666 131.037 C 42.134 130.973,42.559 130.851,42.612 130.766 C 42.664 130.682,42.894 130.612,43.122 130.612 C 43.351 130.612,43.537 130.543,43.537 130.459 C 43.537 130.375,43.997 130.252,44.558 130.187 C 45.120 130.122,45.620 130.002,45.671 129.920 C 45.721 129.839,46.144 129.721,46.609 129.659 C 47.075 129.598,47.498 129.481,47.548 129.399 C 47.598 129.318,47.864 129.252,48.139 129.252 C 48.414 129.252,48.639 129.184,48.639 129.101 C 48.639 129.019,49.137 128.898,49.745 128.833 C 50.353 128.768,50.850 128.651,50.850 128.575 C 50.850 128.498,51.310 128.381,51.871 128.316 C 52.432 128.251,52.934 128.129,52.987 128.044 C 53.039 127.960,53.340 127.891,53.656 127.891 C 53.973 127.891,54.274 127.822,54.326 127.738 C 54.379 127.653,54.880 127.531,55.442 127.466 C 56.003 127.401,56.463 127.287,56.463 127.212 C 56.463 127.137,57.075 127.022,57.823 126.956 C 58.571 126.890,59.184 126.767,59.184 126.683 C 59.184 126.599,59.490 126.531,59.864 126.531 C 60.238 126.531,60.544 126.462,60.544 126.378 C 60.544 126.294,61.156 126.172,61.905 126.105 C 62.653 126.039,63.265 125.926,63.265 125.855 C 63.265 125.783,63.954 125.670,64.796 125.604 C 65.638 125.539,66.327 125.414,66.327 125.327 C 66.327 125.241,66.671 125.170,67.092 125.170 C 67.513 125.170,67.857 125.103,67.857 125.020 C 67.857 124.938,68.584 124.816,69.473 124.749 C 70.361 124.683,71.126 124.567,71.172 124.492 C 71.218 124.418,72.022 124.302,72.958 124.235 C 73.894 124.168,74.660 124.045,74.660 123.961 C 74.660 123.878,75.081 123.810,75.595 123.810 C 76.110 123.810,76.531 123.742,76.531 123.660 C 76.531 123.578,77.488 123.455,78.657 123.388 C 79.827 123.320,80.821 123.204,80.867 123.130 C 80.913 123.055,81.984 122.939,83.248 122.871 C 84.511 122.803,85.544 122.689,85.544 122.616 C 85.544 122.544,86.732 122.429,88.183 122.361 C 89.634 122.293,90.863 122.170,90.914 122.088 C 90.965 122.006,91.729 121.939,92.612 121.939 C 93.495 121.939,94.218 121.871,94.218 121.789 C 94.218 121.706,95.844 121.587,97.832 121.524 C 99.819 121.461,101.599 121.339,101.786 121.253 C 102.500 120.924,127.914 120.418,128.294 120.726 C 128.400 120.811,131.032 120.937,134.144 121.005 C 137.255 121.073,139.837 121.188,139.881 121.259 C 139.925 121.331,142.604 121.446,145.834 121.515 C 149.064 121.584,151.748 121.708,151.799 121.790 C 151.849 121.872,153.221 121.939,154.847 121.939 C 156.473 121.939,157.844 122.005,157.893 122.085 C 157.943 122.165,159.230 122.287,160.752 122.355 C 162.275 122.423,163.597 122.541,163.690 122.618 C 163.784 122.694,164.800 122.812,165.947 122.880 C 167.095 122.948,168.071 123.063,168.116 123.136 C 168.161 123.209,169.193 123.324,170.409 123.391 C 171.624 123.458,172.619 123.580,172.619 123.661 C 172.619 123.743,173.035 123.810,173.544 123.810 C 174.053 123.810,174.513 123.880,174.566 123.966 C 174.620 124.052,175.428 124.177,176.362 124.243 C 177.297 124.309,178.061 124.421,178.061 124.491 C 178.061 124.562,178.788 124.674,179.677 124.741 C 180.565 124.807,181.335 124.931,181.387 125.016 C 181.440 125.101,181.856 125.170,182.313 125.170 C 182.770 125.170,183.186 125.240,183.239 125.325 C 183.292 125.410,183.985 125.534,184.780 125.600 C 185.574 125.666,186.224 125.779,186.224 125.850 C 186.224 125.922,186.875 126.034,187.670 126.101 C 188.465 126.167,189.116 126.291,189.116 126.376 C 189.116 126.461,189.379 126.531,189.701 126.531 C 190.023 126.531,190.329 126.601,190.382 126.686 C 190.435 126.772,191.052 126.896,191.753 126.961 C 192.454 127.027,193.027 127.141,193.027 127.214 C 193.027 127.287,193.563 127.400,194.218 127.466 C 194.872 127.532,195.408 127.654,195.408 127.738 C 195.408 127.822,195.710 127.891,196.078 127.891 C 196.447 127.891,196.791 127.960,196.843 128.044 C 196.896 128.129,197.398 128.251,197.959 128.316 C 198.521 128.382,199.019 128.498,199.067 128.575 C 199.114 128.652,199.650 128.768,200.257 128.833 C 200.864 128.898,201.361 129.019,201.361 129.101 C 201.361 129.184,201.586 129.252,201.861 129.252 C 202.136 129.252,202.403 129.319,202.454 129.402 C 202.505 129.484,202.968 129.605,203.484 129.669 C 204.000 129.734,204.422 129.850,204.422 129.928 C 204.422 130.005,204.881 130.122,205.442 130.187 C 206.003 130.252,206.463 130.366,206.463 130.440 C 206.463 130.513,206.673 130.616,206.930 130.668 C 208.398 130.964,209.279 131.192,209.354 131.294 C 209.401 131.358,209.779 131.464,210.196 131.529 C 210.612 131.594,211.033 131.705,211.131 131.775 C 211.386 131.956,212.392 132.273,213.140 132.407 C 213.491 132.470,213.818 132.585,213.866 132.663 C 213.914 132.740,214.296 132.855,214.715 132.918 C 215.134 132.980,215.476 133.092,215.476 133.167 C 215.476 133.241,215.859 133.354,216.327 133.418 C 216.794 133.483,217.177 133.605,217.177 133.689 C 217.177 133.774,217.330 133.844,217.517 133.844 C 217.704 133.844,217.857 133.920,217.857 134.014 C 217.857 134.107,218.029 134.184,218.240 134.185 C 218.450 134.185,218.843 134.301,219.113 134.441 C 219.382 134.582,219.899 134.744,220.261 134.802 C 220.622 134.860,220.918 134.974,220.918 135.056 C 220.918 135.137,221.024 135.204,221.154 135.204 C 221.284 135.204,221.609 135.318,221.877 135.458 C 222.145 135.598,222.536 135.713,222.747 135.713 C 222.957 135.714,223.129 135.784,223.129 135.869 C 223.129 135.955,223.455 136.079,223.852 136.145 C 224.250 136.212,224.613 136.318,224.660 136.382 C 224.798 136.569,225.964 137.075,226.259 137.075 C 226.408 137.075,226.531 137.145,226.531 137.230 C 226.531 137.315,226.837 137.437,227.211 137.500 C 227.585 137.563,227.891 137.685,227.891 137.770 C 227.891 137.855,228.159 137.925,228.486 137.925 C 229.378 137.925,229.264 137.555,228.146 136.820 C 227.245 136.226,227.119 136.145,226.557 135.799 C 226.253 135.612,225.405 135.068,224.672 134.589 C 223.939 134.111,223.100 133.614,222.809 133.485 C 222.517 133.356,222.279 133.192,222.279 133.122 C 222.279 133.051,222.183 132.993,222.066 132.993 C 221.949 132.993,221.088 132.570,220.153 132.052 C 219.218 131.534,218.280 131.067,218.070 131.013 C 217.859 130.959,217.687 130.847,217.687 130.764 C 217.687 130.680,217.612 130.612,217.521 130.612 C 217.430 130.612,216.242 130.077,214.881 129.422 C 213.520 128.767,212.309 128.231,212.190 128.231 C 212.070 128.231,211.900 128.165,211.811 128.083 C 211.722 128.002,210.693 127.572,209.524 127.129 C 208.355 126.685,206.994 126.140,206.500 125.916 C 206.007 125.693,205.548 125.510,205.480 125.509 C 205.412 125.508,204.668 125.248,203.827 124.930 L 202.296 124.353 202.253 98.486 C 202.215 75.563,202.239 72.619,202.465 72.619 C 202.858 72.619,202.845 67.771,202.452 67.620 C 202.304 67.563,195.302 67.517,186.891 67.517 L 171.599 67.517 171.599 53.997 L 171.599 40.476 175.340 40.476 C 179.335 40.476,179.625 40.407,178.638 39.692 C 177.780 39.070,176.275 37.839,176.219 37.713 C 176.188 37.642,176.073 37.584,175.964 37.582 C 175.786 37.580,175.215 37.147,174.235 36.273 C 174.048 36.106,173.695 35.841,173.451 35.683 C 173.207 35.526,172.899 35.297,172.766 35.173 C 172.495 34.920,171.581 34.207,170.323 33.264 C 169.143 32.381,168.594 31.950,168.080 31.505 C 167.836 31.295,167.591 31.121,167.535 31.119 C 167.478 31.117,167.127 30.850,166.754 30.524 C 166.380 30.198,166.031 29.932,165.977 29.932 C 165.922 29.932,165.577 29.658,165.209 29.323 C 164.842 28.988,164.251 28.526,163.897 28.297 C 163.543 28.067,163.108 27.748,162.930 27.588 C 162.752 27.427,162.430 27.165,162.213 27.004 C 161.997 26.844,161.483 26.439,161.072 26.104 C 160.661 25.769,160.177 25.417,159.996 25.320 C 159.816 25.223,159.540 25.016,159.383 24.860 C 159.227 24.703,158.601 24.195,157.993 23.730 C 157.385 23.266,156.862 22.826,156.831 22.752 C 156.800 22.679,156.670 22.619,156.542 22.619 C 156.414 22.619,156.248 22.520,156.173 22.398 C 155.567 21.412,154.515 21.241,153.603 21.981 M155.132 25.394 C 155.256 25.518,155.833 25.969,156.414 26.397 C 156.995 26.824,157.594 27.297,157.744 27.448 C 157.894 27.598,158.092 27.721,158.183 27.721 C 158.274 27.721,158.540 27.912,158.774 28.146 C 159.008 28.380,159.276 28.571,159.370 28.571 C 159.463 28.571,159.717 28.763,159.934 28.997 C 160.151 29.230,160.374 29.422,160.430 29.422 C 160.487 29.422,160.767 29.651,161.054 29.932 C 161.341 30.213,161.647 30.442,161.733 30.442 C 161.819 30.442,162.069 30.614,162.290 30.825 C 162.510 31.035,162.867 31.322,163.083 31.463 C 163.300 31.603,163.577 31.813,163.699 31.930 C 163.821 32.047,164.003 32.143,164.103 32.143 C 164.204 32.143,164.286 32.213,164.286 32.299 C 164.286 32.385,164.570 32.631,164.917 32.846 C 165.265 33.060,165.672 33.353,165.823 33.497 C 166.391 34.039,167.088 34.524,167.299 34.524 C 167.419 34.524,167.517 34.596,167.517 34.684 C 167.517 34.773,168.110 35.288,168.835 35.830 C 169.560 36.373,170.230 36.877,170.323 36.951 C 170.417 37.026,170.646 37.196,170.833 37.330 C 171.130 37.543,169.066 37.575,154.804 37.580 C 144.001 37.583,138.435 37.527,138.435 37.415 C 138.435 37.321,138.539 37.245,138.666 37.245 C 138.792 37.245,139.086 37.073,139.319 36.862 C 139.907 36.330,140.978 35.490,141.307 35.303 C 141.458 35.217,141.705 35.006,141.857 34.835 C 142.008 34.664,142.185 34.524,142.249 34.524 C 142.365 34.524,143.552 33.634,144.025 33.194 C 144.157 33.071,144.465 32.842,144.709 32.687 C 144.953 32.531,145.253 32.269,145.375 32.103 C 145.498 31.938,145.704 31.803,145.835 31.803 C 145.965 31.803,146.133 31.705,146.208 31.586 C 146.282 31.467,146.573 31.225,146.854 31.049 C 147.134 30.873,147.425 30.626,147.500 30.500 C 147.575 30.375,147.712 30.272,147.805 30.272 C 147.898 30.272,148.066 30.194,148.179 30.099 C 148.795 29.579,149.287 29.183,149.725 28.855 C 149.995 28.652,150.447 28.276,150.728 28.019 C 151.010 27.761,151.316 27.551,151.409 27.551 C 151.501 27.551,151.754 27.360,151.971 27.126 C 152.187 26.892,152.427 26.701,152.502 26.701 C 152.578 26.701,152.833 26.528,153.070 26.318 C 154.321 25.206,154.751 25.014,155.132 25.394 M166.327 53.997 L 166.327 67.517 153.997 67.517 L 141.667 67.517 141.667 53.997 L 141.667 40.476 153.997 40.476 L 166.327 40.476 166.327 53.997 M87.160 53.649 C 87.347 53.852,87.716 54.152,87.979 54.316 C 88.488 54.633,88.894 54.950,89.588 55.570 C 89.823 55.780,90.119 55.952,90.246 55.952 C 90.373 55.952,90.476 56.025,90.476 56.113 C 90.476 56.201,91.069 56.717,91.794 57.258 C 92.519 57.800,93.213 58.340,93.337 58.458 C 93.461 58.577,93.630 58.673,93.714 58.673 C 93.797 58.673,94.090 58.884,94.365 59.141 C 95.249 59.971,95.987 60.544,96.170 60.544 C 96.268 60.544,96.492 60.736,96.667 60.969 C 96.843 61.203,97.055 61.395,97.140 61.395 C 97.285 61.395,97.487 61.538,98.038 62.032 C 98.168 62.149,98.316 62.245,98.366 62.245 C 98.417 62.245,98.693 62.474,98.980 62.755 C 99.267 63.036,99.584 63.265,99.684 63.265 C 99.784 63.265,100.017 63.457,100.200 63.690 C 100.384 63.924,100.638 64.116,100.763 64.116 C 100.889 64.116,101.018 64.174,101.049 64.244 C 101.096 64.353,101.491 64.677,102.806 65.689 C 102.900 65.761,103.244 66.048,103.571 66.326 C 103.899 66.604,104.228 66.833,104.302 66.834 C 104.377 66.836,104.615 67.028,104.832 67.262 C 105.049 67.496,105.313 67.687,105.419 67.687 C 105.525 67.687,105.613 67.744,105.613 67.815 C 105.614 67.885,105.901 68.134,106.251 68.367 C 106.946 68.831,107.201 69.022,107.562 69.345 C 107.692 69.462,107.846 69.558,107.904 69.558 C 107.962 69.558,108.187 69.749,108.403 69.983 C 108.620 70.217,108.873 70.408,108.965 70.408 C 109.058 70.408,109.364 70.619,109.646 70.876 C 109.928 71.133,110.379 71.509,110.649 71.712 C 111.087 72.040,111.579 72.436,112.195 72.956 C 112.308 73.051,112.477 73.129,112.569 73.129 C 112.662 73.129,112.799 73.232,112.874 73.358 C 112.949 73.483,113.239 73.732,113.518 73.910 C 113.797 74.089,114.146 74.349,114.295 74.490 C 114.683 74.856,115.814 75.738,116.137 75.924 C 116.288 76.012,116.499 76.165,116.606 76.264 C 116.822 76.465,117.587 77.072,118.112 77.459 C 118.412 77.681,114.682 77.711,86.311 77.716 L 54.170 77.721 54.629 77.296 C 54.881 77.062,55.162 76.871,55.252 76.871 C 55.343 76.871,55.568 76.679,55.752 76.446 C 55.936 76.212,56.168 76.020,56.269 76.020 C 56.369 76.020,56.686 75.791,56.973 75.510 C 57.260 75.230,57.534 75.000,57.581 75.000 C 57.665 75.000,57.917 74.806,58.412 74.362 C 58.543 74.245,58.720 74.150,58.808 74.150 C 58.895 74.150,59.110 73.958,59.285 73.724 C 59.461 73.491,59.695 73.299,59.806 73.299 C 59.917 73.299,60.237 73.070,60.518 72.789 C 60.799 72.509,61.083 72.279,61.149 72.279 C 61.216 72.279,61.448 72.088,61.665 71.854 C 61.881 71.620,62.135 71.429,62.229 71.429 C 62.323 71.429,62.591 71.237,62.825 71.003 C 63.059 70.770,63.311 70.578,63.385 70.577 C 63.460 70.577,63.765 70.347,64.064 70.067 C 64.363 69.787,64.653 69.558,64.710 69.558 C 64.766 69.558,64.989 69.366,65.206 69.133 C 65.423 68.899,65.671 68.707,65.757 68.707 C 65.903 68.707,66.226 68.458,67.569 67.307 C 67.868 67.051,68.197 66.841,68.301 66.839 C 68.405 66.838,68.633 66.645,68.809 66.412 C 68.985 66.178,69.214 65.986,69.318 65.986 C 69.423 65.986,69.699 65.814,69.931 65.604 C 70.519 65.072,71.590 64.232,71.919 64.044 C 72.070 63.958,72.318 63.748,72.469 63.577 C 72.620 63.405,72.827 63.265,72.928 63.265 C 73.029 63.265,73.174 63.164,73.248 63.039 C 73.323 62.915,73.633 62.669,73.937 62.493 C 74.241 62.316,74.490 62.118,74.490 62.052 C 74.490 61.986,74.765 61.762,75.101 61.555 C 75.437 61.347,75.882 61.015,76.089 60.818 C 76.296 60.621,76.646 60.344,76.868 60.204 C 77.089 60.064,77.498 59.739,77.776 59.481 C 78.054 59.224,78.357 59.014,78.450 59.014 C 78.542 59.014,78.779 58.841,78.977 58.631 C 79.175 58.420,79.566 58.102,79.847 57.924 C 80.128 57.745,80.418 57.497,80.493 57.371 C 80.568 57.246,80.707 57.143,80.803 57.143 C 80.898 57.143,81.078 57.047,81.201 56.930 C 81.324 56.813,81.641 56.565,81.904 56.378 C 82.168 56.190,82.503 55.923,82.648 55.782 C 82.794 55.642,83.142 55.381,83.421 55.203 C 83.700 55.024,83.990 54.776,84.065 54.650 C 84.139 54.525,84.284 54.422,84.385 54.422 C 84.487 54.422,84.747 54.230,84.964 53.997 C 85.181 53.763,85.429 53.571,85.515 53.571 C 85.602 53.571,85.769 53.455,85.888 53.312 C 86.152 52.994,86.686 53.135,87.160 53.649 M197.279 97.516 L 197.279 122.413 196.726 122.273 C 196.207 122.141,195.658 121.981,193.495 121.330 C 193.004 121.182,192.334 120.997,192.007 120.918 C 191.679 120.839,190.952 120.649,190.391 120.497 C 189.830 120.345,189.040 120.149,188.637 120.062 C 188.233 119.975,187.836 119.863,187.755 119.813 C 187.674 119.763,187.277 119.651,186.874 119.564 C 186.470 119.477,185.642 119.287,185.034 119.142 C 184.426 118.997,183.355 118.757,182.653 118.608 C 181.952 118.459,181.110 118.272,180.782 118.193 C 180.225 118.059,177.114 117.419,175.000 117.004 C 174.486 116.903,173.720 116.746,173.299 116.655 C 172.878 116.565,172.037 116.417,171.429 116.328 C 170.821 116.239,169.596 116.046,168.707 115.899 C 166.829 115.589,165.801 115.436,163.690 115.155 C 162.849 115.042,161.777 114.876,161.310 114.785 C 160.360 114.601,157.619 114.280,155.995 114.163 L 154.932 114.087 154.934 105.980 L 154.935 97.874 155.634 97.279 C 156.018 96.952,156.466 96.561,156.628 96.411 C 156.791 96.261,157.144 96.082,157.414 96.015 C 157.684 95.947,157.950 95.818,158.006 95.727 C 158.062 95.637,158.675 95.518,159.368 95.463 C 160.062 95.407,160.719 95.291,160.829 95.205 C 160.951 95.109,161.147 95.115,161.339 95.220 C 161.510 95.315,162.166 95.440,162.798 95.499 C 163.429 95.557,163.946 95.667,163.946 95.743 C 163.946 95.818,164.309 95.934,164.753 96.001 C 165.198 96.067,165.599 96.173,165.646 96.235 C 165.798 96.438,167.855 97.449,168.115 97.449 C 168.254 97.449,168.367 97.526,168.367 97.619 C 168.367 97.713,168.520 97.789,168.707 97.789 C 168.950 97.789,169.048 97.676,169.048 97.395 C 169.048 97.027,168.875 96.844,167.550 95.802 C 167.334 95.632,166.913 95.286,166.615 95.033 C 166.316 94.779,165.785 94.435,165.436 94.267 C 165.086 94.100,164.799 93.905,164.798 93.835 C 164.797 93.765,164.700 93.707,164.583 93.706 C 164.466 93.706,164.169 93.600,163.922 93.471 C 162.289 92.619,158.523 92.313,157.283 92.932 C 156.990 93.078,156.674 93.197,156.580 93.197 C 156.486 93.197,156.159 93.389,155.852 93.622 C 155.546 93.856,155.232 94.049,155.156 94.050 C 155.023 94.053,154.299 94.649,153.401 95.496 C 152.819 96.046,152.551 96.385,152.551 96.573 C 152.551 96.661,152.436 96.776,152.296 96.830 C 152.156 96.884,152.041 97.079,152.041 97.264 C 152.041 97.448,151.964 97.646,151.871 97.704 C 151.761 97.772,151.701 100.651,151.701 105.784 L 151.701 113.758 147.832 113.676 C 145.704 113.631,143.656 113.555,143.282 113.509 C 142.637 113.428,133.018 113.048,124.320 112.760 C 122.122 112.688,120.074 112.618,119.770 112.607 L 119.218 112.585 119.218 97.704 L 119.218 82.823 125.850 82.823 C 133.583 82.823,133.391 82.880,131.235 81.235 C 130.969 81.033,130.461 80.638,130.105 80.357 C 129.750 80.077,129.213 79.656,128.912 79.422 C 128.610 79.188,128.047 78.743,127.660 78.433 C 126.712 77.675,126.565 77.560,125.680 76.873 C 125.259 76.547,124.829 76.203,124.723 76.108 C 124.618 76.013,124.362 75.821,124.155 75.680 C 123.805 75.444,123.626 75.301,122.704 74.522 C 122.517 74.364,122.164 74.106,121.920 73.949 C 121.676 73.792,121.370 73.559,121.240 73.432 C 121.110 73.304,120.814 73.070,120.583 72.910 C 120.186 72.635,122.300 72.619,158.721 72.619 L 197.279 72.619 197.279 97.516 M114.116 97.704 C 114.116 111.757,114.099 112.586,113.818 112.602 C 113.654 112.611,112.334 112.679,110.884 112.751 C 105.827 113.006,102.121 113.275,101.413 113.440 C 101.021 113.531,100.255 113.606,99.712 113.607 C 99.169 113.607,98.074 113.688,97.279 113.786 C 96.484 113.884,95.183 114.035,94.388 114.121 C 93.593 114.208,92.024 114.394,90.901 114.534 C 89.779 114.674,88.210 114.865,87.415 114.958 C 86.620 115.052,85.778 115.177,85.544 115.236 C 85.310 115.296,84.622 115.412,84.014 115.495 C 83.406 115.577,82.236 115.745,81.415 115.868 L 79.922 116.092 79.969 108.684 L 80.017 101.276 80.572 100.733 C 80.877 100.435,81.279 100.143,81.465 100.084 C 81.651 100.025,81.803 99.912,81.803 99.832 C 81.803 99.752,82.032 99.636,82.313 99.575 C 82.594 99.513,82.823 99.392,82.823 99.306 C 82.823 99.220,83.046 99.150,83.319 99.150 C 83.592 99.150,83.842 99.070,83.874 98.973 C 83.957 98.724,87.554 98.710,87.802 98.958 C 87.907 99.063,88.246 99.150,88.554 99.150 C 88.863 99.150,89.116 99.216,89.116 99.298 C 89.116 99.380,89.412 99.494,89.773 99.552 C 90.135 99.609,90.652 99.772,90.921 99.912 C 91.191 100.053,91.501 100.168,91.610 100.169 C 91.719 100.170,91.834 100.227,91.865 100.298 C 92.084 100.790,94.048 101.283,94.048 100.845 C 94.048 100.304,91.122 98.033,89.141 97.037 C 85.804 95.359,82.039 95.657,79.567 97.795 C 79.253 98.067,78.904 98.368,78.791 98.464 C 78.678 98.561,78.544 98.639,78.494 98.639 C 78.372 98.639,77.721 99.292,77.721 99.414 C 77.721 99.466,77.492 99.753,77.212 100.052 L 76.702 100.595 76.701 108.695 L 76.701 116.795 75.808 116.893 C 74.929 116.991,73.770 117.213,71.259 117.765 C 70.557 117.919,69.668 118.114,69.283 118.197 C 68.238 118.423,63.136 119.699,62.160 119.978 C 59.921 120.619,59.589 120.718,59.311 120.832 C 59.029 120.949,59.014 119.980,59.014 101.889 L 59.014 82.823 86.565 82.823 L 114.116 82.823 114.116 97.704 M255.487 117.469 C 255.746 117.508,256.128 117.507,256.337 117.467 C 256.547 117.426,256.335 117.394,255.867 117.396 C 255.400 117.397,255.229 117.430,255.487 117.469 M225.893 117.804 C 226.057 117.847,226.324 117.847,226.488 117.804 C 226.652 117.762,226.518 117.727,226.190 117.727 C 225.863 117.727,225.729 117.762,225.893 117.804 M227.510 117.807 C 227.722 117.848,228.028 117.846,228.191 117.804 C 228.353 117.761,228.180 117.728,227.806 117.730 C 227.432 117.732,227.299 117.767,227.510 117.807 M258.206 117.804 C 258.369 117.847,258.637 117.847,258.801 117.804 C 258.965 117.762,258.831 117.727,258.503 117.727 C 258.176 117.727,258.042 117.762,258.206 117.804 M262.075 118.036 C 263.053 118.210,265.433 118.205,265.986 118.027 C 266.238 117.947,265.372 117.893,263.861 117.895 C 262.048 117.898,261.531 117.939,262.075 118.036 M304.167 118.027 C 304.643 118.232,305.782 118.232,305.782 118.027 C 305.782 117.932,305.351 117.862,304.804 117.869 C 304.101 117.878,303.922 117.922,304.167 118.027 M307.993 118.027 C 307.993 118.121,308.410 118.197,308.919 118.197 C 309.427 118.197,309.891 118.121,309.949 118.027 C 310.015 117.921,309.667 117.857,309.024 117.857 C 308.450 117.857,307.993 117.933,307.993 118.027 M306.335 118.149 C 306.592 118.188,307.013 118.188,307.270 118.149 C 307.528 118.110,307.317 118.078,306.803 118.078 C 306.288 118.078,306.078 118.110,306.335 118.149 " stroke="none" fill="#231f20" fill-rule="evenodd"></path><path id="path2" d="M235.842 106.938 C 235.497 107.007,235.447 107.252,235.757 107.356 C 236.058 107.456,236.058 111.252,235.756 111.352 C 235.640 111.391,235.544 111.608,235.544 111.834 C 235.544 112.060,235.474 112.245,235.389 112.245 C 235.304 112.245,235.182 112.551,235.119 112.925 C 235.056 113.299,234.938 113.605,234.857 113.605 C 234.776 113.605,234.579 113.882,234.419 114.219 C 234.124 114.840,232.778 116.327,232.510 116.327 C 232.430 116.327,232.188 116.480,231.973 116.667 C 231.757 116.854,231.458 117.009,231.309 117.012 C 231.160 117.015,230.889 117.130,230.707 117.267 C 230.526 117.405,230.167 117.517,229.910 117.517 C 229.652 117.517,229.403 117.580,229.355 117.657 C 229.195 117.916,224.980 117.849,224.150 117.575 C 223.729 117.436,223.174 117.316,222.917 117.309 C 222.659 117.301,222.449 117.230,222.449 117.151 C 222.449 117.072,222.299 117.007,222.115 117.007 C 221.819 117.007,220.597 116.591,219.643 116.165 C 217.961 115.416,216.908 114.910,216.837 114.819 C 216.790 114.759,216.522 114.596,216.241 114.456 C 215.627 114.149,214.235 113.246,214.115 113.077 C 214.068 113.011,213.743 112.903,213.392 112.837 L 212.755 112.717 212.761 115.415 C 212.766 118.136,212.834 118.476,213.435 118.767 C 213.970 119.027,214.397 119.316,214.799 119.692 C 215.027 119.906,215.407 120.128,215.643 120.184 C 215.879 120.241,216.267 120.425,216.507 120.592 C 216.747 120.759,217.167 120.950,217.442 121.016 C 217.717 121.081,218.019 121.194,218.112 121.267 C 218.206 121.339,218.569 121.452,218.920 121.517 C 219.271 121.583,219.558 121.705,219.558 121.788 C 219.558 121.871,219.783 121.939,220.058 121.939 C 220.333 121.939,220.603 122.011,220.657 122.099 C 220.712 122.187,221.292 122.312,221.946 122.376 C 222.601 122.441,223.178 122.560,223.228 122.641 C 223.358 122.852,229.376 122.830,229.507 122.619 C 229.565 122.526,229.859 122.449,230.161 122.449 C 230.825 122.449,232.691 121.980,232.818 121.782 C 232.867 121.704,233.233 121.586,233.631 121.519 C 234.028 121.453,234.354 121.337,234.354 121.262 C 234.354 121.187,234.545 121.077,234.779 121.019 C 235.013 120.960,235.204 120.837,235.204 120.745 C 235.204 120.653,235.319 120.578,235.459 120.578 C 235.599 120.578,235.714 120.502,235.714 120.408 C 235.714 120.315,235.853 120.238,236.022 120.238 C 236.530 120.238,239.286 117.719,239.286 117.254 C 239.286 117.134,239.343 117.010,239.413 116.978 C 239.612 116.890,240.646 114.782,240.646 114.466 C 240.646 114.311,240.729 114.101,240.831 113.999 C 240.932 113.898,241.058 113.347,241.109 112.775 C 241.161 112.203,241.270 111.735,241.350 111.735 C 241.431 111.735,241.497 111.127,241.497 110.384 C 241.497 109.641,241.570 108.988,241.660 108.933 C 241.765 108.868,241.765 108.677,241.660 108.401 C 241.570 108.165,241.497 107.746,241.497 107.472 C 241.497 107.197,241.401 106.963,241.284 106.952 C 240.733 106.896,236.104 106.885,235.842 106.938 M250.210 106.931 C 250.045 106.986,250.000 111.018,250.000 125.614 L 250.000 144.227 252.509 144.180 L 255.017 144.133 255.061 133.496 L 255.105 122.860 261.764 122.867 C 266.946 122.873,268.439 122.827,268.495 122.662 C 268.534 122.545,268.780 122.449,269.042 122.449 C 269.645 122.449,271.259 121.935,271.259 121.743 C 271.259 121.664,271.404 121.599,271.581 121.599 C 272.007 121.599,273.980 120.616,273.980 120.403 C 273.980 120.312,274.133 120.238,274.320 120.238 C 274.507 120.238,274.975 119.932,275.360 119.558 C 275.746 119.184,276.110 118.875,276.168 118.873 C 276.354 118.865,277.441 117.791,278.061 117.004 C 278.389 116.588,278.771 116.124,278.912 115.972 C 279.429 115.414,279.762 114.958,279.762 114.806 C 279.762 114.720,279.862 114.549,279.984 114.425 C 280.255 114.151,281.293 112.040,281.293 111.764 C 281.293 111.654,281.369 111.565,281.463 111.565 C 281.556 111.565,281.633 111.420,281.633 111.244 C 281.633 111.068,281.747 110.704,281.887 110.436 C 282.026 110.168,282.141 109.792,282.142 109.600 C 282.142 109.409,282.211 109.179,282.294 109.090 C 282.376 109.001,282.496 108.495,282.559 107.965 C 282.699 106.788,282.821 106.837,279.847 106.887 C 277.005 106.935,277.041 106.931,277.041 107.208 C 277.041 107.338,276.926 107.663,276.787 107.931 C 276.647 108.199,276.532 108.592,276.532 108.803 C 276.531 109.015,276.460 109.321,276.374 109.484 C 276.287 109.646,275.962 110.315,275.651 110.969 C 275.340 111.624,275.028 112.185,274.957 112.217 C 274.887 112.248,274.830 112.348,274.830 112.439 C 274.830 112.775,272.939 114.966,272.650 114.966 C 272.567 114.966,272.306 115.138,272.071 115.349 C 271.334 116.007,271.010 116.229,270.144 116.667 C 269.681 116.901,269.264 117.130,269.218 117.177 C 269.171 117.224,269.018 117.289,268.878 117.322 C 268.737 117.355,267.895 117.565,267.007 117.788 C 265.234 118.233,263.640 118.301,261.905 118.008 C 261.297 117.905,260.149 117.797,259.354 117.768 C 258.559 117.740,257.277 117.660,256.505 117.592 L 255.102 117.468 255.102 112.221 C 255.102 109.334,255.045 106.962,254.974 106.950 C 254.629 106.887,250.392 106.871,250.210 106.931 M287.576 106.978 C 287.369 107.106,287.540 109.184,287.758 109.184 C 287.829 109.184,287.938 109.526,288.001 109.945 C 288.064 110.364,288.187 110.751,288.275 110.805 C 288.363 110.860,288.435 111.053,288.435 111.235 C 288.435 111.416,288.506 111.565,288.592 111.565 C 288.678 111.565,288.803 111.811,288.869 112.113 C 288.935 112.414,289.152 112.931,289.350 113.261 C 289.549 113.591,289.857 114.148,290.035 114.498 C 290.214 114.849,290.415 115.136,290.483 115.136 C 290.551 115.136,290.652 115.270,290.707 115.434 C 291.022 116.374,294.898 120.238,295.526 120.238 C 295.648 120.238,295.748 120.308,295.748 120.394 C 295.748 120.587,297.795 121.599,298.185 121.599 C 298.342 121.599,298.469 121.664,298.469 121.743 C 298.469 121.921,300.064 122.449,300.601 122.449 C 300.816 122.449,301.021 122.535,301.055 122.639 C 301.096 122.761,301.957 122.861,303.456 122.919 C 304.741 122.968,305.833 123.073,305.882 123.154 C 305.999 123.342,306.803 123.344,306.803 123.155 C 306.803 123.076,307.905 122.967,309.252 122.912 C 310.599 122.857,311.843 122.738,312.016 122.646 C 312.189 122.555,312.904 122.395,313.605 122.290 C 315.618 121.991,315.986 121.911,315.986 121.770 C 315.986 121.698,316.484 121.585,317.092 121.520 C 317.700 121.455,318.197 121.331,318.197 121.245 C 318.197 121.159,318.389 121.088,318.622 121.088 L 319.048 121.088 319.048 118.519 L 319.048 115.949 318.495 116.034 C 318.191 116.080,317.751 116.169,317.517 116.231 C 317.283 116.292,316.880 116.374,316.620 116.412 C 316.361 116.450,316.055 116.541,315.940 116.614 C 315.825 116.687,315.693 116.751,315.646 116.757 C 314.649 116.886,313.946 117.059,313.946 117.177 C 313.946 117.259,313.812 117.322,313.648 117.318 C 313.484 117.313,312.929 117.400,312.415 117.510 C 311.901 117.620,311.175 117.749,310.802 117.796 C 310.429 117.843,310.044 117.949,309.945 118.030 C 309.097 118.734,302.500 117.917,300.234 116.827 C 299.662 116.552,299.120 116.327,299.032 116.327 C 298.943 116.327,298.705 116.135,298.501 115.901 C 298.298 115.668,298.035 115.475,297.918 115.473 C 297.613 115.469,295.474 113.255,295.333 112.798 C 295.268 112.587,295.144 112.415,295.057 112.415 C 294.969 112.415,294.898 112.318,294.898 112.199 C 294.898 112.081,294.707 111.702,294.473 111.358 C 294.239 111.014,294.048 110.644,294.048 110.536 C 294.048 110.429,293.941 110.099,293.810 109.805 C 293.489 109.078,293.027 107.565,293.027 107.238 C 293.027 107.092,292.893 106.963,292.730 106.950 C 291.601 106.865,287.725 106.886,287.576 106.978 M328.527 106.935 C 328.246 106.995,328.230 107.460,328.272 114.596 L 328.316 122.194 330.952 122.194 L 333.588 122.194 333.633 114.583 C 333.668 108.561,333.632 106.968,333.463 106.950 C 332.921 106.891,328.793 106.879,328.527 106.935 M341.190 106.933 C 340.956 107.011,340.901 108.844,341.133 108.844 C 341.213 108.844,341.324 109.275,341.378 109.803 C 341.432 110.331,341.558 110.844,341.657 110.943 C 341.756 111.042,341.837 111.298,341.837 111.514 C 341.837 111.729,341.913 111.905,342.007 111.905 C 342.100 111.905,342.177 112.075,342.177 112.282 C 342.177 112.672,343.685 115.857,343.917 115.958 C 343.989 115.989,344.048 116.118,344.048 116.243 C 344.048 116.369,344.239 116.622,344.473 116.806 C 344.707 116.990,344.898 117.223,344.898 117.323 C 344.898 117.423,345.128 117.740,345.408 118.027 C 345.689 118.314,345.918 118.591,345.918 118.641 C 345.918 118.770,346.889 119.728,347.019 119.728 C 347.078 119.728,347.402 119.996,347.739 120.323 C 348.076 120.651,348.411 120.918,348.483 120.918 C 348.556 120.918,348.720 121.014,348.848 121.131 C 349.061 121.326,349.554 121.611,350.680 122.189 C 351.439 122.579,351.944 122.767,352.551 122.886 C 352.878 122.950,353.201 123.088,353.268 123.193 C 353.449 123.479,360.623 123.458,360.910 123.172 C 361.027 123.055,361.296 122.959,361.507 122.959 C 362.056 122.959,364.626 121.955,364.626 121.741 C 364.626 121.677,364.855 121.575,365.136 121.514 C 365.417 121.452,365.646 121.331,365.646 121.245 C 365.646 121.159,365.761 121.088,365.901 121.088 C 366.042 121.088,366.156 121.017,366.156 120.930 C 366.156 120.843,366.324 120.718,366.529 120.653 C 366.734 120.588,367.354 120.104,367.906 119.579 C 369.345 118.209,369.548 118.027,369.638 118.027 C 369.682 118.027,369.739 118.965,369.765 120.111 L 369.813 122.194 372.364 122.194 L 374.915 122.194 374.959 114.583 C 374.984 110.398,374.945 106.962,374.874 106.950 C 374.337 106.855,369.908 106.889,369.621 106.990 C 369.334 107.092,369.236 107.313,369.142 108.063 C 369.077 108.583,368.953 109.052,368.866 109.106 C 368.779 109.160,368.707 109.352,368.707 109.534 C 368.707 109.715,368.639 109.864,368.556 109.864 C 368.472 109.864,368.355 110.074,368.295 110.332 C 368.155 110.931,367.649 111.905,367.478 111.905 C 367.406 111.905,367.347 112.001,367.347 112.119 C 367.347 112.237,367.156 112.540,366.922 112.792 C 366.688 113.044,366.497 113.296,366.497 113.351 C 366.497 113.482,364.843 115.136,364.712 115.136 C 364.657 115.136,364.519 115.214,364.406 115.309 C 363.554 116.028,363.235 116.256,362.366 116.766 C 361.825 117.084,361.174 117.393,360.921 117.454 C 360.667 117.514,360.383 117.609,360.289 117.664 C 360.196 117.719,359.929 117.790,359.697 117.821 C 359.465 117.853,359.235 117.942,359.187 118.018 C 359.071 118.199,354.917 118.223,354.685 118.044 C 354.587 117.967,354.143 117.769,353.699 117.603 C 353.255 117.437,352.891 117.243,352.891 117.172 C 352.891 117.102,352.693 116.994,352.450 116.933 C 351.989 116.817,349.150 114.114,349.150 113.791 C 349.150 113.689,349.078 113.605,348.991 113.605 C 348.904 113.605,348.779 113.437,348.714 113.231 C 348.648 113.025,348.490 112.751,348.362 112.623 C 348.234 112.495,348.129 112.281,348.129 112.148 C 348.129 112.014,348.053 111.905,347.959 111.905 C 347.866 111.905,347.789 111.790,347.789 111.650 C 347.789 111.509,347.719 111.395,347.634 111.395 C 347.549 111.395,347.427 111.088,347.364 110.714 C 347.301 110.340,347.187 110.034,347.111 110.034 C 347.034 110.034,346.919 109.575,346.854 109.013 C 346.789 108.452,346.666 107.950,346.582 107.898 C 346.498 107.846,346.429 107.616,346.429 107.388 C 346.429 107.160,346.333 106.963,346.216 106.950 C 345.634 106.889,341.367 106.874,341.190 106.933 " stroke="none" fill="#14871a" fill-rule="evenodd"></path><path id="path3" d="M224.613 68.887 C 215.442 70.164,210.351 81.072,215.461 88.498 C 216.809 90.458,217.223 90.803,226.871 97.997 C 231.300 101.301,231.985 101.857,233.307 103.226 C 234.350 104.305,235.773 106.405,235.660 106.698 C 235.604 106.844,236.353 106.896,238.503 106.896 L 241.421 106.896 241.119 106.303 C 240.952 105.977,240.816 105.610,240.816 105.486 C 240.816 104.713,238.639 101.544,237.218 100.247 C 234.932 98.163,232.842 96.485,227.636 92.555 C 218.842 85.914,217.707 84.364,218.710 80.355 C 219.983 75.270,223.114 72.889,228.120 73.199 C 231.510 73.409,234.470 74.561,237.155 76.716 C 239.187 78.346,239.116 78.396,239.116 75.337 L 239.116 72.782 237.968 72.045 C 233.665 69.280,229.262 68.239,224.613 68.887 M328.571 76.535 L 328.571 78.921 330.910 78.874 L 333.248 78.827 333.296 76.488 L 333.343 74.150 330.957 74.150 L 328.571 74.150 328.571 76.535 M261.735 82.838 C 259.685 82.969,253.726 83.419,251.610 83.603 C 251.046 83.652,250.493 83.749,250.382 83.818 C 250.229 83.912,250.168 86.769,250.132 95.415 L 250.085 106.888 252.551 106.888 L 255.017 106.888 254.972 97.495 L 254.926 88.103 255.312 88.019 C 255.524 87.973,256.156 87.905,256.718 87.868 C 257.279 87.832,259.116 87.706,260.799 87.589 C 268.388 87.064,272.188 88.153,274.924 91.639 C 277.640 95.099,278.881 102.209,277.483 106.294 L 277.279 106.890 279.952 106.890 C 282.224 106.890,282.625 106.852,282.619 106.634 C 282.615 106.493,282.707 105.651,282.823 104.762 C 283.176 102.076,282.832 97.472,282.111 95.238 C 279.708 87.784,275.078 83.821,267.694 82.897 C 265.597 82.635,265.002 82.629,261.735 82.838 M301.190 83.328 C 292.189 85.474,285.926 95.310,287.240 105.238 L 287.459 106.888 290.071 106.888 C 292.313 106.888,292.672 106.852,292.607 106.633 C 292.334 105.719,292.033 103.818,292.144 103.707 C 292.217 103.633,298.664 103.554,306.470 103.530 L 320.663 103.486 320.648 101.020 C 320.577 89.391,311.267 80.926,301.190 83.328 M356.293 83.326 C 347.045 85.513,340.695 94.638,341.022 105.272 L 341.071 106.888 343.741 106.892 C 345.209 106.894,346.335 106.850,346.243 106.793 C 345.823 106.534,346.061 102.044,346.621 99.660 C 348.190 92.983,352.158 88.870,358.121 87.742 C 359.398 87.500,366.425 87.783,369.097 88.184 L 369.898 88.304 369.894 97.001 C 369.892 101.784,369.827 105.967,369.751 106.296 L 369.611 106.894 372.221 106.891 L 374.830 106.888 374.830 95.557 C 374.830 86.696,374.784 84.188,374.617 84.054 C 374.500 83.960,373.907 83.841,373.299 83.790 C 372.691 83.739,371.314 83.615,370.238 83.514 C 363.540 82.888,358.434 82.819,356.293 83.326 M328.569 94.851 C 328.568 101.097,328.526 106.361,328.475 106.548 C 328.387 106.877,328.467 106.888,330.901 106.888 L 333.418 106.888 333.333 95.238 L 333.248 83.588 330.910 83.541 L 328.571 83.494 328.569 94.851 M307.568 88.214 C 311.112 89.297,315.476 94.875,315.476 98.321 L 315.476 98.810 304.025 98.810 C 297.727 98.810,292.531 98.767,292.478 98.714 C 292.329 98.565,292.758 97.136,293.324 95.895 C 295.956 90.124,302.419 86.639,307.568 88.214 " stroke="none" fill="#5bab5f" fill-rule="evenodd"></path><path id="path4" d="" stroke="none" fill="#00ff00" fill-rule="evenodd"></path></g></svg>